<svg width="18" height="13" viewBox="0 0 18 13" fill="none" xmlns="http://www.w3.org/2000/svg">
<path d="M17.8883 6.77032C17.9235 6.73514 17.9515 6.6927 17.971 6.64606C18.0097 6.55238 18.0097 6.44724 17.971 6.35394C17.9515 6.3073 17.9235 6.26486 17.8883 6.22968L11.7604 0.112123C11.6107 -0.0373744 11.3686 -0.0373744 11.2189 0.112123C11.1442 0.186681 11.1067 0.284562 11.1067 0.382443C11.1067 0.480324 11.1442 0.578205 11.2189 0.652762L16.693 6.11765H0.382989C0.17158 6.11765 0 6.28894 0 6.5C0 6.71106 0.17158 6.88235 0.382989 6.88235H16.693L11.2189 12.3472C11.1442 12.4218 11.1067 12.5197 11.1067 12.6176C11.1067 12.7154 11.1442 12.8133 11.2189 12.8879C11.3686 13.0374 11.6107 13.0374 11.7604 12.8879L17.8883 6.77032Z" fill="#FF5C00"/>
</svg>
