<svg width="91" height="27" viewBox="0 0 91 27" fill="none" xmlns="http://www.w3.org/2000/svg">
<path fill-rule="evenodd" clip-rule="evenodd" d="M1.45397 26.0534V19.034H3.28387C3.95902 19.034 4.63672 19.063 5.1975 18.6259C5.71747 18.2177 6.10651 17.6816 6.69151 17.3423C3.1002 15.91 0.715881 13.4551 0.715881 9.40502C0.715881 1.99446 8.5248 0.891602 14.3227 0.891602H29.9274V26.0534H20.4722V18.7462H17.8745C17.0408 18.77 16.2725 18.9499 15.5587 19.2921C14.3733 19.8644 12.7432 22.2674 12.049 23.4855C10.9491 25.3511 9.38789 26.0534 7.25529 26.0534H1.45397ZM20.4722 12.0865V7.69501H14.131C9.54943 7.69501 9.85429 12.0865 14.0408 12.0865H20.4722ZM60.0488 3.4451C57.2508 1.32143 52.8491 0.891602 49.231 0.891602H33.6262V26.0534H43.0814V18.7462C45.1315 18.7462 47.1809 18.7458 49.231 18.7458C52.7841 18.7458 57.0922 18.3313 59.8957 16.3054C63.7948 13.487 63.8956 6.36595 60.0488 3.4451ZM49.4627 12.0865H43.0814V7.69501H49.4227C51.7008 7.69501 52.77 8.79574 52.7539 9.88417C52.7071 10.9637 51.6455 12.0729 49.4627 12.0865ZM62.4543 19.034C62.9981 18.9703 63.4522 18.8393 63.8114 18.6416C64.3446 18.3487 64.7413 17.958 65.0053 17.472C65.5639 16.4435 65.5933 15.0834 65.5933 13.9321C65.5933 12.3505 65.5151 10.4871 65.6298 8.93097C66.0826 2.79293 71.5549 1.22961 76.8098 0.981324C77.9782 0.926459 79.1436 0.891602 80.2898 0.891602H91V26.0534H81.5266V18.7462H74.3201C74.221 19.0867 74.1067 19.4154 73.9813 19.73C73.4175 21.145 72.608 22.3239 71.5574 23.2635C70.5098 24.1997 69.2416 24.8957 67.7539 25.3574C66.2663 25.8192 64.6039 26.0534 62.7804 26.0534C62.5279 26.0534 62.7026 26.0517 62.4543 26.0475V19.034ZM81.5266 12.0865V7.69501H78.0947C75.9757 7.69501 74.8392 8.22561 74.8392 10.4513V12.0865H81.5266Z" fill="url(#paint0_linear_28_180)"/>
<defs>
<linearGradient id="paint0_linear_28_180" x1="45.8579" y1="0.891596" x2="45.8579" y2="26.0534" gradientUnits="userSpaceOnUse">
<stop stop-color="#B497C7"/>
<stop offset="0.124152" stop-color="#A5A1CF"/>
<stop offset="0.369219" stop-color="#88AEDB"/>
<stop offset="0.603181" stop-color="#6BB4E2"/>
<stop offset="0.819155" stop-color="#54B7E6"/>
<stop offset="1" stop-color="#4AB8E7"/>
</linearGradient>
</defs>
</svg>
