<svg width="38" height="40" viewBox="0 0 38 40" fill="none" xmlns="http://www.w3.org/2000/svg">
<path fill-rule="evenodd" clip-rule="evenodd" d="M0 20.9307C0 21.8112 0.427855 23.6835 0.489576 23.8675C1.12208 25.7654 3.92473 29.3215 7.91794 32.889V17.6859L3.54539 17.6963V13.5375H33.9557V17.6859H29.5827V32.89C33.5765 29.3222 36.3793 25.7656 37.0118 23.8675C37.0736 23.6835 37.501 21.8112 37.501 20.9307C37.501 15.5201 37.501 10.1096 37.501 4.69903C37.501 3.03514 37.11 2.54594 35.837 1.76215C34.5635 0.978845 24.4294 0 18.751 0C13.0715 0 2.93783 0.978845 1.66447 1.76215C0.391518 2.54594 0 3.03514 0 4.69903V5.85536V20.9307ZM33.9557 5.84957V9.99798H3.54539V5.84957H33.9557ZM20.8247 39.4582V17.6859H25.4344V36.2641C23.2469 37.919 21.8119 38.8918 20.8247 39.4582ZM12.0661 36.2631V17.6859H16.6761V39.4577C15.689 38.8913 14.2537 37.9182 12.0661 36.2631Z" fill="url(#paint0_linear_2_841)"/>
<defs>
<linearGradient id="paint0_linear_2_841" x1="18.7505" y1="0" x2="18.7505" y2="39.4582" gradientUnits="userSpaceOnUse">
<stop stop-color="#B497C7"/>
<stop offset="0.124152" stop-color="#A5A1CF"/>
<stop offset="0.369219" stop-color="#88AEDB"/>
<stop offset="0.603181" stop-color="#6BB4E2"/>
<stop offset="0.819155" stop-color="#54B7E6"/>
<stop offset="1" stop-color="#4AB8E7"/>
</linearGradient>
</defs>
</svg>
