<svg width="103" height="30" viewBox="0 0 103 30" fill="none" xmlns="http://www.w3.org/2000/svg">
<path fill-rule="evenodd" clip-rule="evenodd" d="M1.14993 29.4483V21.4644H3.23127C3.99919 21.4644 4.77001 21.4973 5.40783 21.0002C5.99925 20.5359 6.44175 19.9261 7.10714 19.5402C3.02236 17.911 0.310425 15.1189 0.310425 10.5123C0.310425 2.08349 9.19233 0.829102 15.7869 0.829102H33.5357V29.4483H22.7814V21.137H19.8267C18.8784 21.1641 18.0046 21.3687 17.1927 21.7579C15.8444 22.4088 13.9904 25.142 13.2007 26.5275C11.9497 28.6494 10.174 29.4483 7.74838 29.4483H1.14993ZM22.7814 13.5622V8.56733H15.5688C10.3577 8.56733 10.7045 13.5622 15.4663 13.5622H22.7814ZM67.7959 3.73346C64.6135 1.318 59.607 0.829102 55.4917 0.829102H37.7428V29.4483H48.4972V21.137C50.829 21.137 53.1599 21.1365 55.4917 21.1365C59.533 21.1365 64.4331 20.665 67.6218 18.3608C72.0567 15.1551 72.1713 7.05565 67.7959 3.73346ZM55.7553 13.5622H48.4972V8.56733H55.7098C58.3009 8.56733 59.517 9.8193 59.4987 11.0573C59.4455 12.2851 58.238 13.5468 55.7553 13.5622ZM70.532 21.4644C71.1505 21.3919 71.667 21.2429 72.0756 21.018C72.682 20.6849 73.1332 20.2405 73.4335 19.6877C74.0689 18.518 74.1023 16.971 74.1023 15.6614C74.1023 13.8625 74.0133 11.743 74.1439 9.97311C74.6589 2.99168 80.883 1.21356 86.8601 0.931152C88.1889 0.868749 89.5144 0.829102 90.8182 0.829102H103V29.4483H92.2249V21.137H84.0282C83.9155 21.5243 83.7855 21.8981 83.6428 22.256C83.0016 23.8654 82.0808 25.2063 80.8859 26.275C79.6944 27.3399 78.2519 28.1315 76.5598 28.6566C74.8678 29.1818 72.977 29.4483 70.9029 29.4483C70.6157 29.4483 70.8144 29.4463 70.532 29.4415V21.4644ZM92.2249 13.5622V8.56733H88.3214C85.9113 8.56733 84.6187 9.17083 84.6187 11.7024V13.5622H92.2249Z" fill="url(#paint0_linear_2_842)"/>
<defs>
<linearGradient id="paint0_linear_2_842" x1="51.6552" y1="0.829096" x2="51.6552" y2="29.4483" gradientUnits="userSpaceOnUse">
<stop stop-color="#B497C7"/>
<stop offset="0.124152" stop-color="#A5A1CF"/>
<stop offset="0.369219" stop-color="#88AEDB"/>
<stop offset="0.603181" stop-color="#6BB4E2"/>
<stop offset="0.819155" stop-color="#54B7E6"/>
<stop offset="1" stop-color="#4AB8E7"/>
</linearGradient>
</defs>
</svg>
