<svg width="27" height="28" viewBox="0 0 27 28" fill="none" xmlns="http://www.w3.org/2000/svg">
<path d="M20.1736 10.5139C20.1736 4.71663 15.6488 0 10.0868 0C4.52477 0 0 4.71663 0 10.5139C0 16.3112 4.52477 21.0278 10.0868 21.0278C15.6488 21.0278 20.1736 16.3112 20.1736 10.5139ZM10.0868 19.9765C5.08131 19.9765 1.00868 15.7316 1.00868 10.5139C1.00868 5.29624 5.08131 1.05139 10.0868 1.05139C15.0922 1.05139 19.1649 5.29624 19.1649 10.5139C19.1649 15.7316 15.0922 19.9765 10.0868 19.9765ZM26.4428 24.0724L20.6537 18.038C20.0844 17.4439 19.0836 17.4439 18.5143 18.038L17.444 19.1535C16.8544 19.7683 16.8544 20.7688 17.444 21.3836L23.233 27.4176C23.5828 27.7823 24.1201 28 24.6702 28C24.9421 28 25.2046 27.9445 25.4292 27.8395L25.5144 27.8L26.8097 26.4501L26.8476 26.3616C27.1579 25.6385 26.9802 24.633 26.4428 24.0724ZM25.9547 25.8541L24.9426 26.9091C24.6333 27.0082 24.163 26.8998 23.9462 26.6742L18.1572 20.6402C17.9606 20.4354 17.9606 20.1017 18.1572 19.8969L19.2274 18.7813C19.322 18.6828 19.4485 18.6286 19.584 18.6286C19.7194 18.6286 19.846 18.6828 19.9406 18.7813L25.7296 24.8158C25.9557 25.0514 26.0532 25.5237 25.9547 25.8541Z" fill="#797979"/>
</svg>
