<svg width="20" height="15" viewBox="0 0 20 15" fill="none" xmlns="http://www.w3.org/2000/svg">
<path d="M18.4182 1.56847C18.5933 1.76295 18.5707 2.05873 18.3674 2.22788L11.4255 7.98936C11.0443 8.30549 10.5379 8.47962 10 8.47962C9.46113 8.47962 8.9552 8.30549 8.57446 7.98936L1.63215 2.22788C1.42884 2.05919 1.40672 1.7634 1.5818 1.56847C1.66698 1.4735 1.78558 1.41651 1.915 1.40747C2.04725 1.40294 2.17009 1.43867 2.26798 1.52053L9.20981 7.28155C9.63809 7.63704 10.3619 7.63704 10.7902 7.28155L17.7325 1.52008C17.8299 1.43912 17.956 1.40249 18.0845 1.40747C18.2144 1.41651 18.3326 1.4735 18.4182 1.56847ZM20 1.87376V13.1262C20 14.1592 19.1251 15 18.0502 15H1.94983C0.874906 15 0 14.1592 0 13.1262V1.87376C0 0.840771 0.874906 0 1.94983 0H18.0502C19.1251 -1.8525e-07 20 0.840771 20 1.87376ZM18.0502 0.934843H1.94983C1.41096 0.934843 0.972798 1.35591 0.972798 1.87376V13.1262C0.972798 13.6441 1.41096 14.0652 1.94983 14.0652H18.0502C18.589 14.0652 19.0272 13.6441 19.0272 13.1262V1.87376C19.0272 1.35591 18.589 0.934843 18.0502 0.934843Z" fill="#5AB2FF"/>
</svg>
