<svg width="13" height="22" viewBox="0 0 13 22" fill="none" xmlns="http://www.w3.org/2000/svg">
<path d="M6.86818 18.0362L6.51953 17.6952L6.16992 18.0353L2.96197 21.1557L2.96193 21.1557L2.95649 21.1611C2.73474 21.3836 2.42983 21.5 2.11505 21.5C1.8009 21.5 1.49548 21.3834 1.27503 21.1616L1.27507 21.1616L1.26958 21.1562L1.24369 21.131C0.796108 20.6819 0.80341 19.965 1.26497 19.5214L1.26498 19.5215L1.26805 19.5185L4.5172 16.3421L5.17826 15.6959L4.27558 15.4964C3.15367 15.2484 2.08101 14.8166 1.10473 14.2234L1.10356 14.2223L1.05614 14.193C0.500811 13.8508 0.338765 13.1467 0.67374 12.6114C0.68291 12.5982 0.691331 12.5847 0.699019 12.571C1.05677 12.0461 1.78787 11.8861 2.34596 12.2301L2.34745 12.231C4.89678 13.7898 8.13342 13.791 10.6838 12.2346C11.2401 11.9165 11.9481 12.0796 12.2994 12.5935L12.2996 12.5937C12.6609 13.1216 12.5218 13.8377 11.9751 14.1994C10.9863 14.8061 9.89828 15.2459 8.75902 15.4992L7.85809 15.6995L8.51796 16.3448L11.7638 19.5188C12.2042 19.9675 12.2037 20.6744 11.761 21.1234C11.3007 21.5895 10.535 21.6034 10.0567 21.1551L6.86818 18.0362ZM6.51798 10.8561L6.42796 10.8562C3.52957 10.8073 1.21379 8.49984 1.20939 5.68041C1.20963 2.83489 3.58192 0.5 6.51855 0.5C9.45539 0.5 11.8276 2.83515 11.8277 5.67885C11.8231 8.52661 9.45979 10.8527 6.51798 10.8561ZM3.6133 5.68011L3.61331 5.68191C3.61673 7.26588 4.92618 8.52902 6.51786 8.53123L6.51925 8.53123C8.11153 8.52902 9.42288 7.26509 9.42288 5.67988V5.67951C9.42182 4.2651 8.3768 3.10459 7.01855 2.8713V2.82661L6.51752 2.82764C4.9261 2.83093 3.61561 4.09493 3.6133 5.68011Z" stroke="white"/>
</svg>
