<svg width="22" height="27" viewBox="0 0 22 27" fill="none" xmlns="http://www.w3.org/2000/svg">
<path d="M16.4448 0H1.93081V14.6082H0V22.3012H5.29685e-05L1.93037 24.2624L1.93081 27H22V5.64366L16.4448 0ZM19.1787 21.4574H0.830485V15.4519H19.1787V21.4574ZM16.8589 5.2218V2.03668L19.9947 5.2218H16.8589ZM6.01002 19.1583H6.92366L7.10329 19.155C7.6621 19.155 8.03358 19.0635 8.21728 18.8814C8.40098 18.6984 8.49264 18.3293 8.49264 17.7731C8.49264 17.2136 8.39653 16.8354 8.20388 16.6402C8.01128 16.444 7.63819 16.3468 7.08507 16.3468H6.88151H5.23426V20.4997H6.01002V19.1583ZM6.01002 17.0102H6.97155C7.30288 17.0102 7.50807 17.0522 7.58671 17.1362C7.66579 17.2203 7.70511 17.4378 7.70511 17.7888C7.70512 18.0953 7.65766 18.2889 7.56279 18.3714C7.46788 18.4537 7.24485 18.4949 6.89366 18.4949H6.01002V17.0102ZM12.2636 20.0572C12.4468 19.7622 12.5393 19.0956 12.5393 18.059C12.5393 17.4246 12.4242 16.9805 12.1963 16.7267C11.9676 16.4729 11.5677 16.3468 10.9967 16.3468H8.98697V20.4997H11.0207C11.6654 20.4997 12.0803 20.3522 12.2636 20.0572ZM9.76273 19.8363V17.0101H10.9157C11.277 17.0101 11.5069 17.0925 11.6046 17.259C11.7024 17.4254 11.7515 17.8152 11.7515 18.4273C11.7514 19.0198 11.6971 19.403 11.588 19.576C11.4793 19.7498 11.2392 19.8363 10.8678 19.8363H9.76273ZM13.8808 20.4997H13.1055V16.3468H15.8128V17.0101H13.8808V18.1291H15.7138V18.7924H13.8808V20.4997Z" fill="#4BB9E8" fill-opacity="0.66"/>
</svg>
