<svg width="19" height="19" viewBox="0 0 19 19" fill="none" xmlns="http://www.w3.org/2000/svg">
<path d="M14.0289 11.9645C13.7027 12.4751 13.1858 13.0988 12.5392 13.2542C11.399 13.5288 9.64776 13.2609 7.46104 11.2338C5.56822 9.47921 5.0677 8.01785 5.18585 6.85876C5.25292 6.20131 5.80466 5.60786 6.26946 5.21729C6.58651 4.95098 7.07166 5.06085 7.23955 5.43786L7.94037 7.01218C8.03256 7.2192 8.00316 7.45959 7.86375 7.63858L7.50805 8.09561C7.35812 8.28837 7.33805 8.55243 7.46013 8.76367C7.88347 9.49585 9.54111 10.9596 10.3291 11.2763C10.5565 11.3677 10.8172 11.3119 10.989 11.138L11.3963 10.7258C11.5559 10.5643 11.7917 10.5027 12.0107 10.565L13.6765 11.04C14.0756 11.154 14.2512 11.6163 14.0289 11.9645ZM18.9952 9.7335C18.8341 14.8453 14.4803 18.8927 9.35197 18.8623C7.92072 18.841 6.54673 18.5094 5.26927 17.8777L5.1211 17.8047L0.0415807 19L1.10744 13.8584L1.03279 13.7134C0.352526 12.3889 0.00509793 10.9581 4.65116e-05 9.46094C-0.0156691 4.40312 3.95309 0.252329 9.03485 0.0112396C9.19257 0.00393379 9.35028 0 9.50744 0C12.032 0 14.3916 0.962673 16.1933 2.73909C18.0837 4.60206 19.0783 7.08601 18.9952 9.7335ZM17.7587 9.43172C17.7587 7.23943 16.8994 5.17865 15.3385 3.62815C13.7787 2.07933 11.7054 1.22624 9.50014 1.22624C7.3269 1.22624 5.19911 2.10181 3.66179 3.62815C2.10145 5.17809 1.24214 7.23943 1.24214 9.43172C1.24214 10.7451 1.54411 11.9988 2.14074 13.1588L2.41127 13.6848L1.6485 17.3618L5.2732 16.5093L5.82549 16.7819C6.97273 17.35 8.20922 17.6378 9.50014 17.6378C11.7054 17.6378 13.7787 16.7847 15.3385 15.2359C16.8764 13.7078 17.7587 11.5925 17.7587 9.43172Z" fill="#FFFFFF"/>
</svg>
