<svg width="18" height="18" viewBox="0 0 18 18" fill="none" xmlns="http://www.w3.org/2000/svg">
<path d="M14.1519 18.0006C13.9409 18.0006 13.7334 17.9264 13.5615 17.7829L9.62307 14.4987C9.59475 14.4752 9.55031 14.4503 9.49074 14.5055L7.30764 16.5499C7.06838 16.775 6.73977 16.859 6.42824 16.7702C6.09865 16.6769 5.84572 16.4122 5.751 16.0622L4.29787 10.6955L0.603535 9.11147C0.239277 8.95522 0.00246041 8.58217 1.9009e-05 8.16127C-0.00242239 7.7394 0.230488 7.36342 0.593281 7.20278L16.669 0.0802177C16.9834 -0.0604073 17.334 -0.0135323 17.6065 0.200335C17.9097 0.438616 18.0537 0.832659 17.9824 1.22866L15.0972 17.1671C15.0308 17.5343 14.794 17.8253 14.4629 17.9455C14.3613 17.9826 14.2564 18.0006 14.1519 18.0006ZM9.56154 13.4733C9.8091 13.4733 10.0567 13.5587 10.2632 13.7306L14.2022 17.0153L16.9981 1.05092L17.0742 0.99428L0.998554 8.11684L5.13771 9.97133C5.19289 9.5934 5.39113 9.24819 5.70021 9.02944L13.356 3.61391C13.6226 3.42543 13.9717 3.46938 14.1856 3.7145C14.4107 3.97377 14.4043 4.35707 14.1704 4.60659L7.85256 11.3517C7.70412 11.5104 7.60646 11.7296 7.57863 11.9684L7.3633 13.8004C7.3218 14.1539 7.05422 14.4157 6.7134 14.4376C6.56838 14.4494 6.43654 14.4122 6.3218 14.3439L6.71584 15.8004L8.80764 13.775C9.02248 13.5744 9.29201 13.4733 9.56154 13.4733ZM11.0645 6.45961L6.27785 9.84535C6.15383 9.93324 6.09328 10.1344 6.13771 10.3126L6.56398 12.0338L6.58547 11.8512C6.6382 11.402 6.82912 10.9821 7.12258 10.6681L11.0645 6.45961ZM13.4409 3.92201C13.4409 3.9225 13.4405 3.92299 13.44 3.92299L13.4409 3.92201Z" fill="#5AB2FF"/>
</svg>
