<svg width="19" height="11" viewBox="0 0 19 11" fill="none" xmlns="http://www.w3.org/2000/svg">
<path fill-rule="evenodd" clip-rule="evenodd" d="M17.899 9.43683C17.0258 8.43512 16.099 7.57416 15.2183 6.57751C14.7595 6.05835 14.918 6.00183 15.1718 5.63153C15.9548 4.48981 16.7571 3.2608 17.5 2.12952C17.8334 1.62158 17.7243 1.42126 17.1992 1.42126C16.4233 1.42126 15.6475 1.42126 14.8716 1.42126C14.2559 1.42126 14.1884 1.32867 13.7723 2.08197C13.0176 3.44745 12.1131 5.20813 10.8803 5.31195C10.8877 4.06488 10.8955 2.90723 10.9028 1.66022C10.9047 1.32532 10.8419 1 10.2216 1C9.41419 1 8.60694 1 7.79951 1C7.09663 1 6.71406 1.3288 6.73566 1.53064C6.77778 1.92297 7.53242 1.43427 7.53242 2.52386C7.53242 3.45313 7.53242 4.38251 7.53242 5.31195C6.61976 5.44562 5.42622 3.35455 4.5677 1.93469C4.33002 1.54156 4.34443 1.42126 3.56373 1.42126C2.86481 1.42126 2.16615 1.42126 1.46735 1.42126C1.09235 1.42126 0.842231 1.5351 1.1153 2.04956C2.50251 4.66388 5.64045 9.99542 8.41926 9.99542C9.07093 9.99542 9.72254 9.99542 10.3742 9.99542C10.8515 9.99542 10.984 9.77875 10.984 9.47913C10.984 8.95154 10.984 8.46869 10.984 7.8999C12.033 8.00043 12.7275 8.75122 13.4741 9.50604C13.9523 9.98944 14.104 10 14.5001 10C15.4908 10 16.4815 9.99847 17.4721 9.99774C18.0293 9.99731 18.0966 9.66327 17.899 9.43683Z" stroke="white"/>
</svg>
