<svg width="17" height="19" viewBox="0 0 17 19" fill="none" xmlns="http://www.w3.org/2000/svg">
<path d="M10.351 7.95625C10.3493 7.95629 10.3477 7.95632 10.3462 7.95635L10.3464 7.88965L10.351 7.95625ZM10.351 7.95625C10.3566 7.95587 10.3605 7.95554 10.3629 7.95528C10.363 7.95527 10.363 7.95527 10.363 7.95527L10.3629 7.95442L10.3651 7.73798L10.3469 7.73408L10.3469 7.74569L10.349 7.85706L10.351 7.95625ZM10.3288 7.95666L10.3289 7.95491L10.3288 7.95666ZM10.3288 7.95666C10.3275 7.95668 10.3263 7.9567 10.3251 7.95672L10.3288 7.95666ZM8.51256 4.12877L8.50923 4.1581L8.51256 4.12877ZM8.51256 4.12877C8.50291 4.12845 8.49557 4.1282 8.49088 4.12802L8.49088 4.128L11.1627 5.37295C10.648 4.78978 9.97162 4.3886 9.2104 4.2182C8.98581 4.16793 8.75383 4.13774 8.51644 4.1289C8.51511 4.12886 8.51381 4.12881 8.51256 4.12877ZM9.08815 6.03517C9.47301 6.06521 9.80486 6.18456 10.0544 6.4141M9.08815 6.03517C8.96058 6.02522 8.84694 6.1238 8.82741 6.25002C8.80592 6.38881 8.88161 6.50862 9.01838 6.54482C9.0774 6.56046 9.13755 6.56639 9.19779 6.57232C9.26613 6.57906 9.3346 6.58581 9.40169 6.60677C9.50111 6.63771 9.5959 6.68587 9.67964 6.75185C9.69301 6.76238 9.70601 6.77331 9.71863 6.78463L10.0544 6.4141M9.08815 6.03517L9.06848 6.28732L9.06848 6.28733L9.06094 6.38398L9.06092 6.38433L9.04927 6.53366C9.04926 6.53366 9.04925 6.53366 9.04924 6.53366L9.06089 6.38444L9.06091 6.3841L9.06847 6.28733L9.06847 6.28732L9.08815 6.03517ZM10.0544 6.4141C10.0334 6.39522 10.0116 6.37687 9.98908 6.35911L10.0544 6.4141ZM6.46303 7.43697C6.50825 7.35756 6.57026 7.29829 6.63612 7.23964C6.65097 7.22642 6.66574 7.2131 6.68052 7.19978C6.74061 7.14563 6.80073 7.09145 6.86549 7.04384C7.1974 6.8 7.24769 6.36202 7.06459 6.00368C6.76668 5.42116 6.39888 4.8929 5.99843 4.39034C5.81325 4.15785 5.563 4.08186 5.3094 4.21364C4.98445 4.38246 4.6844 4.61153 4.45125 4.91078C4.20271 5.22969 3.96663 5.66695 4.12697 6.09016C4.14492 6.13761 4.16284 6.18509 4.18077 6.23258C4.3382 6.64966 4.4959 7.06746 4.67958 7.47109L6.46303 7.43697ZM6.46303 7.43697C6.38045 7.58229 6.37648 7.7538 6.42964 7.91176L6.46303 7.43697ZM6.65953 9.79088C6.04323 9.04077 5.55407 8.1857 5.13468 7.264L5.13467 7.26399C4.95828 6.87636 4.80655 6.47446 4.6482 6.05506C4.63043 6.008 4.61258 5.96071 4.5946 5.9132L4.59454 5.91302C4.56693 5.84017 4.56488 5.7501 4.6082 5.62511C4.65328 5.49506 4.73878 5.35524 4.84563 5.21813L4.84567 5.21808C5.02682 4.98556 5.26645 4.79941 5.53991 4.65733L5.53994 4.65732C5.54612 4.65411 5.55088 4.65211 5.55425 4.65088C5.56328 4.65627 5.58194 4.66998 5.60733 4.70186L5.60739 4.70192C5.99482 5.18815 6.34145 5.68784 6.61935 6.23119C6.66596 6.32241 6.67702 6.41306 6.66514 6.48351C6.65411 6.54887 6.62377 6.60099 6.56947 6.64089L6.56931 6.64101C6.48206 6.70515 6.3981 6.781 6.33796 6.83533C6.32541 6.84666 6.31391 6.85706 6.30362 6.86622L6.30358 6.86626C6.23379 6.92842 6.11734 7.03363 6.02856 7.18951L6.02831 7.18994C5.86218 7.4823 5.8665 7.80603 5.95575 8.07123C6.39544 9.37778 7.16154 10.457 8.45604 11.0395L8.45616 11.0395C8.46889 11.0453 8.48353 11.0521 8.49993 11.0599C8.65126 11.131 8.95303 11.2728 9.29562 11.2297L9.29582 11.2296C9.68118 11.1809 9.90441 10.9222 10.0256 10.7614C10.0583 10.7179 10.1055 10.6501 10.1409 10.5993C10.1584 10.5742 10.173 10.5533 10.1815 10.5415C10.2254 10.4806 10.2527 10.4498 10.272 10.4328C10.3101 10.3991 10.3374 10.3939 10.3539 10.3933C10.373 10.3926 10.4102 10.3976 10.4617 10.4328C10.7073 10.6009 10.948 10.7832 11.1954 10.9738L11.1955 10.9739C11.2102 10.9852 11.2248 10.9965 11.2393 11.0076C11.4718 11.1865 11.6775 11.3449 11.8678 11.526C11.9177 11.5735 11.9328 11.6104 11.9374 11.6298C11.9412 11.6457 11.9439 11.6729 11.9232 11.7204L6.65953 9.79088ZM6.65953 9.79088C7.74021 11.106 9.1132 11.9762 10.6444 12.6631M6.65953 9.79088L10.6444 12.6631M10.6444 12.6631L10.6445 12.6632C10.7186 12.6964 10.7794 12.7143 10.8675 12.7402C10.8871 12.746 10.9081 12.7522 10.9308 12.759C10.9416 12.756 10.9519 12.7531 10.9614 12.7505C10.9827 12.7446 11.0002 12.7397 11.0111 12.7365C11.0733 12.7182 11.1004 12.7062 11.1145 12.6981C11.4671 12.4932 11.7303 12.1632 11.9232 11.7204L10.6444 12.6631ZM10.3475 7.5738L10.3478 7.46029C10.3501 7.46056 10.3525 7.46085 10.3549 7.46117C10.3573 7.46148 10.3617 7.46207 10.3678 7.46304L10.3668 7.57226L10.3667 7.5724L10.3659 7.65507L10.3659 7.65517L10.3651 7.73795L10.3469 7.73405L10.3472 7.65711V7.65702L10.3475 7.57397V7.5738ZM8.414 4.12741L8.41414 4.1274L8.414 4.12741ZM16.1275 12.0236L16.1273 12.0248C15.9476 12.8103 15.4397 13.6618 14.7586 14.3704C14.0767 15.0799 13.2714 15.594 12.5451 15.7658L12.5329 15.7686C11.1944 16.0444 9.84675 16.1819 8.50001 16.1819C8.18358 16.1819 7.86646 16.1734 7.54866 16.1576L8.11169 15.5327C9.55919 15.5621 11.0072 15.4287 12.4434 15.1334L12.4516 15.1317L12.4598 15.1297C13.1472 14.9642 13.8569 14.4603 14.4146 13.8827C14.9744 13.303 15.4578 12.5698 15.6227 11.8653L15.6245 11.8578L15.626 11.8503C16.096 9.52194 16.096 7.16053 15.626 4.83211L15.6245 4.82456L15.6227 4.81705C15.4578 4.11258 14.9745 3.37942 14.4148 2.79971C13.8571 2.22207 13.1474 1.7181 12.4598 1.55254L12.4516 1.55059L12.4435 1.5489C9.82719 1.01076 7.17289 1.01076 4.55604 1.5489L4.54782 1.55059L4.53966 1.55255C3.85228 1.71813 3.14273 2.22212 2.58508 2.79969C2.0254 3.37938 1.54206 4.11246 1.37687 4.81682L1.37508 4.82446L1.37353 4.83215C0.904014 7.1605 0.904014 9.52178 1.37353 11.8501L1.37508 11.8578L1.37687 11.8654C1.54206 12.5698 2.02539 13.3029 2.58508 13.8826C3.06287 14.3774 3.65215 14.8183 4.24348 15.0385V15.7061C3.54016 15.4815 2.7869 14.9614 2.15583 14.2792C1.51829 13.59 1.04649 12.7797 0.873337 12.0297L0.870317 12.015C0.870262 12.0148 0.870207 12.0145 0.870153 12.0142C0.376561 9.57632 0.376615 7.10509 0.870317 4.66712L0.87334 4.65247C1.05436 3.86827 1.56168 3.01891 2.24128 2.31186C2.92241 1.60321 3.72639 1.08947 4.45171 0.916971L4.46433 0.914275C7.14185 0.362008 9.85617 0.361905 12.5343 0.913984L12.5465 0.916651C13.2724 1.08883 14.0771 1.60279 14.7586 2.31186C15.4397 3.02045 15.9476 3.87192 16.1273 4.65747L16.1275 4.6586L16.1311 4.67381C16.623 7.10772 16.623 9.57466 16.1311 12.0084L16.1275 12.0236Z" stroke="#5AB1FF"/>
</svg>
