<svg width="18" height="18" viewBox="0 0 18 18" fill="none" xmlns="http://www.w3.org/2000/svg">
<path d="M17.3882 12.2079C15.9772 11.5683 14.8746 11.2124 13.0184 10.7981C12.9535 10.7838 12.8792 10.7768 12.793 10.7768C12.5502 10.7768 11.8684 10.8558 11.6327 11.2211L10.72 12.6602C10.58 12.8848 10.043 12.8587 9.65306 12.5717C8.88274 12.0118 8.11553 11.3587 7.37846 10.6345C6.6516 9.89508 5.9959 9.12653 5.42809 8.35004C5.23662 8.08752 5.14647 7.77197 5.19475 7.52844C5.21056 7.44781 5.24852 7.33948 5.34581 7.27936L6.77885 6.37006C7.19341 6.10913 7.27721 5.25909 7.20122 4.96893C6.79942 3.45306 6.2451 1.86139 5.80614 0.64325C5.65501 0.229309 4.94878 0 4.51775 0C4.37535 0 4.24645 0.0221558 4.13573 0.0651855C2.89238 0.546387 1.78514 1.26752 0.842392 2.20929C0.586167 2.46631 0.340134 2.74536 0.0902561 3.06244L0.0063328 3.16846L0.00322001 3.30365C-0.0821682 6.88483 1.53368 10.6036 4.49406 13.564C7.31358 16.383 10.9375 18 14.4372 18L14.8343 17.9937L14.9394 17.9106C15.2431 17.6742 15.5303 17.4211 15.7968 17.1578C16.7364 16.2153 17.4569 15.1075 17.937 13.8677C18.1395 13.3521 17.8263 12.4056 17.3882 12.2079ZM17.1817 13.5735C16.742 14.7098 16.0831 15.7234 15.225 16.5838C15.0138 16.7933 14.7861 16.9958 14.5472 17.1887L14.4372 17.1903C11.151 17.1903 7.73509 15.6594 5.06975 12.9947L5.00969 12.9346C2.29924 10.224 0.773545 6.77728 0.810715 3.45782C1.01158 3.2088 1.21092 2.98657 1.41582 2.78101C2.27702 1.92072 3.291 1.26038 4.42918 0.820007C4.42998 0.820007 4.45604 0.809753 4.51775 0.809753C4.73839 0.809753 5.00407 0.906982 5.04442 0.919617C5.47789 2.12073 6.0244 3.69031 6.41673 5.17053C6.4373 5.28046 6.37322 5.62842 6.34551 5.68604L4.91557 6.59381C4.64903 6.75836 4.4655 7.0351 4.39983 7.37347C4.30736 7.84479 4.44414 8.37531 4.77477 8.82758C5.36473 9.63574 6.04649 10.4344 6.80577 11.2069C7.57616 11.9636 8.37419 12.6436 9.17534 13.2256C9.95049 13.7933 11.0198 13.7183 11.4065 13.0904L12.2789 11.7003C12.3398 11.6552 12.5896 11.5959 12.842 11.5888C14.6374 11.9889 15.7004 12.3313 17.0061 12.9149C17.1081 13.0169 17.2347 13.4399 17.1817 13.5735Z" fill="#A5C9EE"/>
</svg>
